<svg xmlns="http://www.w3.org/2000/svg" width="1200" height="130" viewBox="0 0 288.28131 31.347518" clip-rule="evenodd" fill-rule="evenodd" stroke-linejoin="round" stroke-miterlimit="1.414"><path d="M259.899 24.123H283.3V8.52h-23.402z" fill="#039" fill-rule="nonzero"/><path d="M271.101 11.92l.495-.359.493.36-.188-.583.502-.36h-.618l-.189-.59-.189.59h-.62l.5.36zm-2.556.687l.495-.36.493.36-.188-.582.502-.361h-.618l-.19-.592-.189.594-.617-.002.501.36zm-1.376.341l-.189.591h-.618l.5.36-.186.583.493-.36.495.36-.189-.583.502-.36h-.617zm-.684 3.723l.492.362-.188-.582.502-.361h-.618l-.188-.59-.192.592-.617-.002.5.36-.186.583zm.874 1.979l-.19-.59-.188.59h-.619l.5.362-.187.58.494-.36.495.36-.188-.58.502-.362zm1.873 1.873l-.19-.59-.19.592-.618-.002.503.362-.188.581.494-.36.494.36-.187-.581.502-.362zm2.553.679l-.19-.591-.188.591h-.62l.503.36-.19.583.495-.36.495.36-.19-.583.505-.36zm2.552-.679l-.19-.59-.19.592-.616-.002.5.362-.188.581.494-.36.495.36-.189-.581.504-.362zm1.874-1.873l-.19-.59-.188.59h-.618l.501.362-.19.58.495-.36.495.36-.189-.58.503-.362zm1.296-2.567h-.618l-.188-.592-.191.592h-.616l.501.362-.19.581.496-.36.494.36-.19-.581zm-1.98-1.611l.494-.358.495.358-.189-.582.503-.359h-.618l-.19-.592-.189.594-.618-.002.501.359zm-1.373-3.399l-.186.593-.62-.002.502.36-.188.584.496-.362.491.362-.187-.583.5-.361h-.617z" fill="#fc0" fill-rule="nonzero"/><path d="M223.677 18.676v-2.574h1.571v.308h-1.21v.766h1.077v.3h-1.078v.892h1.304v.308zm3.548-.096c-.08.02-.184.041-.314.063s-.28.034-.451.034a.954.954 0 0 1-.376-.065.6.6 0 0 1-.245-.184.743.743 0 0 1-.134-.28 1.46 1.46 0 0 1-.04-.36v-1.084h.345v1.01c0 .236.037.404.112.506.074.101.199.152.375.152a2.044 2.044 0 0 0 .382-.038v-1.63h.346zm1.289-1.876a1.87 1.87 0 0 1 .386.056l-.059.3a1.11 1.11 0 0 0-.379-.055.896.896 0 0 0-.191.02 3.797 3.797 0 0 0-.124.028v1.624h-.346v-1.85c.082-.03.183-.058.305-.084.121-.026.257-.04.408-.04m2.048.963c0-.218-.05-.39-.147-.519a.477.477 0 0 0-.4-.19.477.477 0 0 0-.399.19c-.098.128-.147.301-.147.52 0 .217.05.39.147.517a.477.477 0 0 0 .4.192.477.477 0 0 0 .399-.192c.098-.127.147-.3.147-.518m.36 0c0 .154-.022.292-.067.416a.95.95 0 0 1-.187.32.826.826 0 0 1-.288.206.907.907 0 0 1-.365.072.905.905 0 0 1-.364-.072.824.824 0 0 1-.288-.206.947.947 0 0 1-.187-.32 1.22 1.22 0 0 1-.067-.416c0-.151.022-.29.067-.414a.94.94 0 0 1 .187-.322.825.825 0 0 1 .288-.206.905.905 0 0 1 .364-.072c.132 0 .253.024.365.072a.826.826 0 0 1 .288.206c.08.09.143.197.187.322.045.125.067.263.067.414m1.81.048c0-.225-.056-.398-.168-.52a.576.576 0 0 0-.446-.182c-.103 0-.185.004-.243.011a.937.937 0 0 0-.14.026v1.22a.738.738 0 0 0 .443.148.55.55 0 0 0 .254-.054.469.469 0 0 0 .173-.149.627.627 0 0 0 .097-.223c.02-.085.03-.177.03-.277m.36 0c0 .147-.02.282-.058.405a.923.923 0 0 1-.169.32.774.774 0 0 1-.273.208.884.884 0 0 1-.37.074.933.933 0 0 1-.487-.13v.773h-.345v-2.56a7.1 7.1 0 0 1 .307-.065 2.23 2.23 0 0 1 .425-.035c.149 0 .283.024.401.07a.86.86 0 0 1 .305.201c.084.086.15.193.195.318.046.125.069.265.069.421m1.687-.234a.58.58 0 0 0-.117-.384.402.402 0 0 0-.333-.15.458.458 0 0 0-.364.166.553.553 0 0 0-.098.171.836.836 0 0 0-.047.197zm-1.327.19c0-.171.025-.32.075-.448a.936.936 0 0 1 .197-.318.804.804 0 0 1 .282-.19.884.884 0 0 1 .327-.062c.26 0 .46.08.598.243.139.162.208.41.208.741v.058a.586.586 0 0 1-.003.065h-1.323c.015.2.073.353.174.457.102.104.26.156.476.156a1.264 1.264 0 0 0 .494-.093l.048.29a1.029 1.029 0 0 1-.22.07 1.581 1.581 0 0 1-.36.037c-.168 0-.313-.025-.436-.075a.813.813 0 0 1-.48-.528 1.348 1.348 0 0 1-.057-.403m2.82.72c.082 0 .155-.001.218-.005a.983.983 0 0 0 .158-.02v-.576a.446.446 0 0 0-.121-.032 1.341 1.341 0 0 0-.368-.002.508.508 0 0 0-.16.047.341.341 0 0 0-.12.097.252.252 0 0 0-.049.161c0 .124.04.21.12.258a.614.614 0 0 0 .322.073m-.03-1.732a1 1 0 0 1 .352.054.569.569 0 0 1 .23.152c.058.066.1.144.125.234.024.091.037.19.037.3v1.207l-.125.02a3.429 3.429 0 0 1-.18.025c-.067.007-.14.014-.217.02a3.02 3.02 0 0 1-.232.01c-.11 0-.21-.012-.301-.034a.684.684 0 0 1-.238-.106.484.484 0 0 1-.156-.191.67.67 0 0 1-.056-.286c0-.107.022-.198.065-.275a.524.524 0 0 1 .177-.186.821.821 0 0 1 .26-.104 1.435 1.435 0 0 1 .42-.028 1.4 1.4 0 0 1 .105.015l.088.016c.024.005.042.01.052.011v-.096a.794.794 0 0 0-.019-.17.389.389 0 0 0-.067-.148.337.337 0 0 0-.132-.104.52.52 0 0 0-.217-.039 1.65 1.65 0 0 0-.3.025.977.977 0 0 0-.19.05l-.041-.287c.044-.02.119-.039.223-.057.104-.019.216-.028.338-.028m1.297.141c.079-.02.184-.04.315-.063.131-.022.283-.033.454-.033.153 0 .28.021.382.064a.6.6 0 0 1 .244.183c.06.078.103.171.128.28.025.11.037.23.037.36v1.085h-.346v-1.01c0-.119-.008-.22-.024-.305a.514.514 0 0 0-.08-.204.318.318 0 0 0-.148-.113.652.652 0 0 0-.23-.036 2.225 2.225 0 0 0-.326.026c-.028.005-.049.01-.061.011v1.631h-.346zm3.689-.408c-.154 0-.271.003-.353.01v.97h.256c.124 0 .236-.006.335-.018a.775.775 0 0 0 .25-.07.377.377 0 0 0 .158-.148.49.49 0 0 0 .056-.25.475.475 0 0 0-.056-.241.415.415 0 0 0-.15-.153.663.663 0 0 0-.223-.078 1.601 1.601 0 0 0-.273-.022m.546 1.207c.04.05.09.115.15.195a7.448 7.448 0 0 1 .38.574c.063.107.117.21.161.308h-.394a6.016 6.016 0 0 0-.672-1.01 1.536 1.536 0 0 1-.099.004h-.425v1.006h-.36V16.14c.101-.025.214-.041.34-.05.125-.009.24-.013.343-.013.362 0 .638.068.827.204.19.136.284.34.284.61a.714.714 0 0 1-.135.438.8.8 0 0 1-.4.271m2.255-.12a.58.58 0 0 0-.117-.384.402.402 0 0 0-.332-.15.458.458 0 0 0-.364.166.553.553 0 0 0-.099.171.836.836 0 0 0-.046.197zm-1.326.19c0-.171.025-.32.074-.448a.936.936 0 0 1 .197-.318.804.804 0 0 1 .283-.19.884.884 0 0 1 .327-.062c.26 0 .459.08.598.243.138.162.208.41.208.741v.058a.586.586 0 0 1-.004.065h-1.323c.015.2.073.353.175.457.102.104.26.156.476.156a1.264 1.264 0 0 0 .494-.093l.048.29a1.032 1.032 0 0 1-.221.07 1.581 1.581 0 0 1-.358.037c-.169 0-.315-.025-.437-.075a.813.813 0 0 1-.48-.528 1.348 1.348 0 0 1-.057-.403m3.374-.62a1.11 1.11 0 0 0-.14-.029 1.73 1.73 0 0 0-.236-.013.528.528 0 0 0-.429.182.734.734 0 0 0-.15.483c0 .112.014.207.043.287a.547.547 0 0 0 .115.196.45.45 0 0 0 .167.116.526.526 0 0 0 .195.037.78.78 0 0 0 .253-.04.61.61 0 0 0 .182-.09zm.003 1.433a.901.901 0 0 1-.172.077.886.886 0 0 1-.3.046.96.96 0 0 1-.328-.056.71.71 0 0 1-.27-.172.838.838 0 0 1-.182-.292 1.164 1.164 0 0 1-.067-.416c0-.142.021-.271.064-.388a.864.864 0 0 1 .183-.305.848.848 0 0 1 .296-.2.989.989 0 0 1 .394-.073c.16 0 .301.011.421.035.12.023.222.045.303.065v1.724c0 .297-.076.513-.23.647-.154.133-.386.2-.699.2a1.9 1.9 0 0 1-.624-.1l.063-.301a1.641 1.641 0 0 0 .569.104c.205 0 .353-.04.444-.123.09-.081.135-.211.135-.39zm1.264.193h-.346v-1.932h.346zm-.175-2.28a.223.223 0 0 1-.158-.062.217.217 0 0 1-.065-.165.217.217 0 0 1 .223-.227.217.217 0 0 1 .223.226.217.217 0 0 1-.223.227m2.096 1.271c0-.218-.05-.39-.147-.519a.477.477 0 0 0-.4-.19.477.477 0 0 0-.399.19c-.098.128-.147.301-.147.52 0 .217.05.39.147.517a.477.477 0 0 0 .4.192.477.477 0 0 0 .399-.192c.098-.127.147-.3.147-.518m.36 0c0 .154-.022.292-.067.416a.95.95 0 0 1-.187.32.823.823 0 0 1-.289.206.905.905 0 0 1-.364.072.905.905 0 0 1-.364-.072.824.824 0 0 1-.288-.206.953.953 0 0 1-.187-.32 1.224 1.224 0 0 1-.067-.416c0-.151.022-.29.067-.414a.946.946 0 0 1 .187-.322.825.825 0 0 1 .288-.206.905.905 0 0 1 .364-.072c.132 0 .253.024.364.072a.824.824 0 0 1 .289.206c.08.09.143.197.187.322.045.125.067.263.067.414m.468-.866c.08-.02.185-.04.316-.063a2.77 2.77 0 0 1 .453-.033c.154 0 .282.021.383.064a.6.6 0 0 1 .243.183.702.702 0 0 1 .129.28c.024.11.037.23.037.36v1.085h-.346v-1.01c0-.119-.008-.22-.024-.305a.514.514 0 0 0-.08-.204.318.318 0 0 0-.149-.113.652.652 0 0 0-.23-.036 2.218 2.218 0 0 0-.325.026c-.028.005-.049.01-.061.011v1.631h-.346zm2.768 1.59c.082 0 .154-.001.218-.005a.983.983 0 0 0 .157-.02v-.576a.448.448 0 0 0-.12-.032 1.345 1.345 0 0 0-.368-.002.509.509 0 0 0-.16.047.341.341 0 0 0-.12.097.252.252 0 0 0-.049.161c0 .124.04.21.119.258.08.048.187.073.323.073m-.03-1.732a1 1 0 0 1 .352.054.57.57 0 0 1 .23.152.58.58 0 0 1 .124.234c.025.091.038.19.038.3v1.207l-.125.02a3.429 3.429 0 0 1-.18.025c-.067.007-.14.014-.217.02a3.02 3.02 0 0 1-.233.01c-.109 0-.209-.012-.3-.034a.682.682 0 0 1-.238-.106.484.484 0 0 1-.157-.191.67.67 0 0 1-.055-.286c0-.107.022-.198.065-.275a.522.522 0 0 1 .176-.186.821.821 0 0 1 .26-.104 1.435 1.435 0 0 1 .42-.028c.037.004.073.009.106.015l.088.016.051.011v-.096a.794.794 0 0 0-.018-.17.389.389 0 0 0-.067-.148.337.337 0 0 0-.132-.104.519.519 0 0 0-.217-.039 1.65 1.65 0 0 0-.3.025.957.957 0 0 0-.19.05l-.042-.287c.045-.02.12-.039.223-.057.104-.019.217-.028.338-.028m1.877 2.017c-.213-.005-.364-.05-.453-.137-.09-.087-.134-.221-.134-.405v-2.318l.345-.06v2.322c0 .057.005.104.015.142.01.037.026.066.049.089a.204.204 0 0 0 .089.05c.037.011.083.02.137.028zm-30.679 4.238c.342 0 .597-.088.765-.262.168-.175.253-.42.253-.734s-.085-.56-.253-.734c-.168-.175-.423-.262-.765-.262-.102 0-.18.001-.236.004a1.84 1.84 0 0 0-.117.007v1.97a6.63 6.63 0 0 0 .353.011m1.4-.996c0 .223-.034.417-.104.581a1.07 1.07 0 0 1-.293.409 1.247 1.247 0 0 1-.453.242c-.176.053-.37.08-.58.08-.104 0-.219-.005-.344-.013a2.084 2.084 0 0 1-.34-.05v-2.498c.102-.024.215-.041.34-.05.125-.008.24-.013.344-.013.21 0 .404.027.58.08.175.053.327.134.453.241.126.109.224.245.293.41.07.164.104.358.104.581m1.713.115a.579.579 0 0 0-.117-.384.402.402 0 0 0-.332-.15.458.458 0 0 0-.364.166.558.558 0 0 0-.099.171.842.842 0 0 0-.046.197zm-1.326.19c0-.171.025-.32.074-.448a.936.936 0 0 1 .197-.318.81.81 0 0 1 .283-.19.884.884 0 0 1 .327-.062c.26 0 .459.08.598.243.138.162.208.409.208.741v.058a.575.575 0 0 1-.004.065h-1.323c.015.2.073.353.175.456.101.105.26.157.476.157a1.217 1.217 0 0 0 .494-.093l.048.29a1.015 1.015 0 0 1-.221.07 1.562 1.562 0 0 1-.359.038c-.168 0-.314-.026-.436-.076a.814.814 0 0 1-.48-.528 1.346 1.346 0 0 1-.057-.403m3.675-.925a9.89 9.89 0 0 1-.34 1.04c-.13.332-.256.629-.377.892h-.313a16.11 16.11 0 0 1-.377-.892 9.762 9.762 0 0 1-.34-1.04h.372a11.534 11.534 0 0 0 .51 1.527c.04-.1.085-.212.133-.339a14.163 14.163 0 0 0 .269-.8c.04-.138.076-.267.106-.388zm1.504.735a.58.58 0 0 0-.117-.384.403.403 0 0 0-.332-.15.458.458 0 0 0-.364.166.558.558 0 0 0-.099.171.85.85 0 0 0-.046.197zm-1.326.19c0-.171.025-.32.074-.448a.936.936 0 0 1 .197-.318.81.81 0 0 1 .283-.19.884.884 0 0 1 .327-.062c.26 0 .459.08.598.243.138.162.208.409.208.741v.058a.575.575 0 0 1-.004.065h-1.323c.015.2.073.353.175.456.102.105.26.157.476.157a1.223 1.223 0 0 0 .494-.093l.048.29a1.009 1.009 0 0 1-.221.07 1.56 1.56 0 0 1-.359.038c-.168 0-.314-.026-.436-.076a.817.817 0 0 1-.48-.528 1.34 1.34 0 0 1-.057-.403m2.746 1.007c-.213-.005-.364-.051-.454-.138-.089-.087-.133-.222-.133-.405v-2.319l.345-.059v2.322a.56.56 0 0 0 .015.142.2.2 0 0 0 .048.089.212.212 0 0 0 .09.05c.037.01.083.02.137.028zm1.761-1.011c0-.218-.05-.39-.147-.519a.478.478 0 0 0-.4-.191.477.477 0 0 0-.399.191c-.098.128-.147.3-.147.519 0 .218.05.39.147.518a.477.477 0 0 0 .4.191.477.477 0 0 0 .4-.19c.097-.128.146-.301.146-.519m.36 0c0 .154-.022.292-.067.416a.953.953 0 0 1-.187.32.824.824 0 0 1-.288.206.906.906 0 0 1-.364.072.905.905 0 0 1-.365-.072.824.824 0 0 1-.287-.206.953.953 0 0 1-.188-.32 1.224 1.224 0 0 1-.067-.416c0-.152.022-.29.067-.415a.941.941 0 0 1 .188-.32.83.83 0 0 1 .287-.207.905.905 0 0 1 .365-.072.9.9 0 0 1 .364.072.83.83 0 0 1 .288.206c.08.089.143.196.187.321.045.126.067.263.067.415m1.81.048c0-.225-.056-.399-.167-.52a.577.577 0 0 0-.446-.182c-.104 0-.185.004-.244.011a.991.991 0 0 0-.14.026v1.219a.72.72 0 0 0 .183.1.685.685 0 0 0 .515-.006.465.465 0 0 0 .172-.148.628.628 0 0 0 .097-.223c.02-.086.03-.178.03-.277m.36 0c0 .147-.019.281-.057.405a.917.917 0 0 1-.17.32.767.767 0 0 1-.273.208.879.879 0 0 1-.37.074.903.903 0 0 1-.486-.13v.773h-.346v-2.56c.082-.02.184-.042.307-.065.123-.024.264-.036.425-.036.149 0 .283.024.402.071a.86.86 0 0 1 .304.2.87.87 0 0 1 .195.318c.046.125.07.266.07.422m.467-.914c.08-.02.184-.04.314-.063s.28-.034.452-.034c.124 0 .228.017.312.05a.552.552 0 0 1 .212.147.925.925 0 0 1 .22-.117c.053-.02.114-.04.18-.056a.915.915 0 0 1 .216-.024c.149 0 .27.022.364.065a.527.527 0 0 1 .222.185.706.706 0 0 1 .107.282c.019.109.028.228.028.357v1.085h-.345v-1.011c0-.114-.006-.212-.017-.294a.573.573 0 0 0-.063-.204.295.295 0 0 0-.127-.12.47.47 0 0 0-.206-.04.768.768 0 0 0-.288.047.57.57 0 0 0-.154.083c.02.065.035.135.045.212.01.077.015.157.015.242v1.085h-.346v-1.011c0-.114-.006-.212-.019-.294a.594.594 0 0 0-.065-.204.292.292 0 0 0-.126-.12.459.459 0 0 0-.202-.04 2.007 2.007 0 0 0-.324.026.936.936 0 0 0-.06.011v1.632h-.345zm4.399.68a.579.579 0 0 0-.117-.384.402.402 0 0 0-.332-.15.458.458 0 0 0-.364.166.558.558 0 0 0-.099.171.85.85 0 0 0-.046.197zm-1.326.19c0-.171.025-.32.074-.448a.936.936 0 0 1 .197-.318.81.81 0 0 1 .283-.19.884.884 0 0 1 .327-.062c.26 0 .46.08.598.243.138.162.208.409.208.741v.058a.575.575 0 0 1-.004.065h-1.323c.015.2.074.353.175.456.102.105.26.157.476.157a1.217 1.217 0 0 0 .494-.093l.048.29a1.015 1.015 0 0 1-.22.07 1.56 1.56 0 0 1-.36.038c-.168 0-.313-.026-.436-.076a.815.815 0 0 1-.48-.528 1.346 1.346 0 0 1-.057-.403m2.166-.87c.08-.02.185-.04.316-.063s.283-.034.453-.034c.154 0 .281.022.383.065a.602.602 0 0 1 .243.182.706.706 0 0 1 .129.281c.024.11.037.23.037.36v1.086h-.346v-1.011c0-.12-.008-.22-.024-.305a.513.513 0 0 0-.08-.204.318.318 0 0 0-.149-.114.66.66 0 0 0-.23-.035 2.053 2.053 0 0 0-.386.037v1.632h-.346zm2.438-.1h.732v.29h-.732v.891c0 .097.007.177.022.24a.356.356 0 0 0 .067.148c.03.037.066.062.111.076a.725.725 0 0 0 .407-.013l.132-.05.067.287a1.267 1.267 0 0 1-.182.065 1.028 1.028 0 0 1-.297.039.9.9 0 0 1-.326-.05.47.47 0 0 1-.206-.15.603.603 0 0 1-.11-.248 1.63 1.63 0 0 1-.031-.34v-1.724l.346-.06zm2.013 1.977v-2.575h1.554v.308h-1.193v.777h1.059v.304h-1.06v1.186zm3.4-.097c-.08.02-.184.04-.314.063-.13.022-.28.034-.451.034a.95.95 0 0 1-.376-.066.603.603 0 0 1-.245-.184.748.748 0 0 1-.133-.28 1.46 1.46 0 0 1-.041-.359v-1.085h.345v1.011c0 .235.037.404.112.506.074.101.2.152.375.152a1.769 1.769 0 0 0 .227-.013l.094-.011a.28.28 0 0 0 .062-.013v-1.632h.345zm.576-1.78c.08-.02.185-.04.316-.063s.282-.034.453-.034c.154 0 .281.022.383.065a.603.603 0 0 1 .243.182c.06.078.104.172.128.281.025.11.038.23.038.36v1.086h-.346v-1.011c0-.12-.008-.22-.024-.305a.516.516 0 0 0-.08-.204.319.319 0 0 0-.149-.114.66.66 0 0 0-.23-.035 2.053 2.053 0 0 0-.387.037v1.632h-.345zm3.363.308a.722.722 0 0 0-.443-.148.56.56 0 0 0-.254.054.464.464 0 0 0-.173.148.629.629 0 0 0-.096.225c-.02.087-.03.18-.03.279 0 .225.056.4.167.522.112.122.26.184.446.184a1.399 1.399 0 0 0 .383-.041zm0-1.3l.345-.06v2.828a3.61 3.61 0 0 1-.304.067 2.445 2.445 0 0 1-.428.034c-.148 0-.282-.024-.401-.071a.858.858 0 0 1-.5-.519 1.216 1.216 0 0 1-.069-.421c0-.149.02-.285.058-.41a.915.915 0 0 1 .169-.318.767.767 0 0 1 .273-.209.879.879 0 0 1 .37-.074.902.902 0 0 1 .487.13zm-39.954-6.884V9.575h2.506v.603h-1.796v.962h1.599v.592h-1.6v1.143h1.932v.602zm5.552-.152a6.357 6.357 0 0 1-.513.104c-.21.036-.44.054-.692.054-.236 0-.435-.034-.594-.102a.95.95 0 0 1-.383-.281 1.106 1.106 0 0 1-.205-.43 2.289 2.289 0 0 1-.062-.55v-1.65h.681v1.543c0 .315.046.54.138.676.092.135.252.202.481.202.083 0 .17-.003.262-.01.092-.008.16-.018.206-.029V10.47h.68zm2.511-2.179a2.242 2.242 0 0 0-.234-.059 1.77 1.77 0 0 0-.346-.031c-.075 0-.155.008-.24.023a1.363 1.363 0 0 0-.177.039v2.36h-.681v-2.805a3.68 3.68 0 0 1 .493-.138c.197-.043.415-.065.656-.065a3.09 3.09 0 0 1 .512.065c.056.013.101.026.135.037zm2.522.783c0-.293-.063-.525-.188-.696a.617.617 0 0 0-.527-.256c-.225 0-.4.086-.526.256-.126.171-.189.403-.189.696 0 .296.063.531.189.704a.615.615 0 0 0 .526.259c.225 0 .4-.087.527-.26.125-.172.188-.407.188-.703m.698 0a1.9 1.9 0 0 1-.1.636 1.404 1.404 0 0 1-.288.49 1.29 1.29 0 0 1-.448.315 1.444 1.444 0 0 1-.577.113c-.21 0-.401-.038-.574-.113a1.291 1.291 0 0 1-.445-.316 1.44 1.44 0 0 1-.29-.49 1.853 1.853 0 0 1-.104-.635c0-.233.035-.444.104-.634.07-.19.167-.352.293-.487a1.28 1.28 0 0 1 .448-.312c.172-.074.362-.11.568-.11.207 0 .397.036.572.11.174.073.323.177.447.312s.22.298.29.487c.07.19.104.4.104.634m2.624.09c0-.304-.068-.54-.205-.71-.138-.169-.358-.253-.662-.253-.064 0-.13.003-.2.008-.07.006-.138.018-.205.037v1.683a1.053 1.053 0 0 0 .557.17c.248 0 .429-.085.543-.254.115-.169.172-.396.172-.681m.698-.011c0 .224-.029.431-.087.619a1.447 1.447 0 0 1-.25.484c-.11.135-.246.24-.409.315a1.314 1.314 0 0 1-.554.113 1.412 1.412 0 0 1-.67-.163v1.143h-.682v-3.891c.14-.037.31-.073.513-.107.202-.034.416-.05.641-.05.233 0 .442.035.625.106a1.31 1.31 0 0 1 .77.791c.069.19.103.403.103.64m2.483-.361a.894.894 0 0 0-.04-.267.645.645 0 0 0-.115-.22.55.55 0 0 0-.186-.146.595.595 0 0 0-.261-.054.611.611 0 0 0-.476.214.71.71 0 0 0-.127.22 1.23 1.23 0 0 0-.062.253zm-1.976.304c0-.259.038-.486.115-.681.077-.195.18-.358.307-.487.128-.13.274-.227.44-.293.165-.066.334-.098.506-.098.406 0 .722.125.949.377.227.251.34.627.34 1.126a3.2 3.2 0 0 1-.01.253h-1.943c.019.237.102.42.25.549.148.13.363.194.645.194a2.115 2.115 0 0 0 .777-.14l.09.557c-.038.019-.09.039-.155.06a3.344 3.344 0 0 1-.498.099 2.583 2.583 0 0 1-.298.016 1.8 1.8 0 0 1-.676-.116 1.261 1.261 0 0 1-.473-.32 1.31 1.31 0 0 1-.276-.485 1.98 1.98 0 0 1-.09-.61m4.38.99c.21 0 .37-.011.479-.034v-.754a1.512 1.512 0 0 0-.628-.034.706.706 0 0 0-.208.062.38.38 0 0 0-.15.127.354.354 0 0 0-.056.205c0 .162.051.273.152.335a.787.787 0 0 0 .411.093m-.056-2.54c.225 0 .415.029.569.085a.909.909 0 0 1 .368.237.883.883 0 0 1 .197.368c.04.145.06.304.06.476v1.785c-.106.023-.264.05-.476.082a4.845 4.845 0 0 1-.718.048 2.14 2.14 0 0 1-.484-.051 1.012 1.012 0 0 1-.375-.163.769.769 0 0 1-.242-.293 1.015 1.015 0 0 1-.087-.445c0-.169.033-.311.099-.428a.81.81 0 0 1 .267-.284c.113-.073.243-.126.391-.158a2.185 2.185 0 0 1 .966.014v-.112a.882.882 0 0 0-.028-.226.47.47 0 0 0-.099-.188.462.462 0 0 0-.185-.127.803.803 0 0 0-.29-.045c-.158 0-.303.011-.434.034a1.916 1.916 0 0 0-.321.079l-.084-.552c.086-.03.212-.06.377-.09s.341-.045.529-.045m1.993.225a4.684 4.684 0 0 1 1.21-.158c.24 0 .442.033.603.099.161.066.29.157.386.276.095.118.163.26.202.428.04.167.06.35.06.549v1.655h-.682v-1.548c0-.158-.01-.292-.03-.403a.713.713 0 0 0-.102-.27.406.406 0 0 0-.191-.152.81.81 0 0 0-.296-.048 3.178 3.178 0 0 0-.479.045v2.376h-.681zm6.075 2.855c-.267 0-.495-.039-.687-.116a1.269 1.269 0 0 1-.476-.324 1.316 1.316 0 0 1-.278-.49 2.024 2.024 0 0 1-.09-.619V9.496h.715v2.37c0 .177.02.328.059.454.04.126.095.228.169.307.073.079.16.137.259.174a.94.94 0 0 0 .335.056.965.965 0 0 0 .338-.056.672.672 0 0 0 .261-.174.793.793 0 0 0 .17-.307c.039-.126.058-.277.058-.453v-2.37h.715v2.437c0 .225-.03.432-.093.62a1.26 1.26 0 0 1-.763.814 1.883 1.883 0 0 1-.692.115m2.387-2.855a4.684 4.684 0 0 1 1.21-.158c.24 0 .442.033.603.099.161.066.29.157.386.276.095.118.163.26.202.428.04.167.06.35.06.549v1.655h-.682v-1.548c0-.158-.01-.292-.03-.403a.713.713 0 0 0-.102-.27.406.406 0 0 0-.191-.152.81.81 0 0 0-.296-.048 3.278 3.278 0 0 0-.479.045v2.376h-.68zm3.947 2.849h-.681v-2.945h.681zm.073-3.806a.391.391 0 0 1-.124.304.42.42 0 0 1-.292.112.428.428 0 0 1-.299-.112.39.39 0 0 1-.124-.304c0-.132.041-.235.124-.31a.429.429 0 0 1 .299-.112c.112 0 .21.037.292.112a.398.398 0 0 1 .124.31m2.725 2.258c0-.293-.063-.525-.188-.696a.617.617 0 0 0-.527-.256c-.225 0-.4.086-.526.256-.126.171-.189.403-.189.696 0 .296.063.531.189.704a.615.615 0 0 0 .526.259c.225 0 .4-.087.527-.26.125-.172.188-.407.188-.703m.698 0a1.9 1.9 0 0 1-.101.636 1.404 1.404 0 0 1-.287.49 1.29 1.29 0 0 1-.448.315 1.444 1.444 0 0 1-.577.113c-.21 0-.402-.038-.574-.113a1.291 1.291 0 0 1-.445-.316 1.44 1.44 0 0 1-.29-.49 1.853 1.853 0 0 1-.104-.635c0-.233.035-.444.104-.634.07-.19.167-.352.293-.487.126-.135.275-.24.447-.312.173-.074.363-.11.57-.11.205 0 .396.036.57.11.175.073.324.177.448.312s.22.298.29.487c.07.19.104.4.104.634m.67-1.301a4.675 4.675 0 0 1 1.21-.158c.241 0 .442.033.603.099a.935.935 0 0 1 .589.704c.04.167.059.35.059.549v1.655h-.682v-1.548c0-.158-.01-.292-.03-.403a.713.713 0 0 0-.102-.27.407.407 0 0 0-.191-.152.81.81 0 0 0-.296-.048 3.126 3.126 0 0 0-.478.045v2.376h-.682z" fill-rule="nonzero"/><g fill-rule="nonzero"><path d="M15.384 26.075l-10.403-1.95V8.523l10.403-3.25z" fill="#039"/><path d="M4.983 20.375v-4.05c.523.142 1.106.21 1.49-.023.84-.501 2.113-2.036 2.113-2.036s-.67 1.656-.418 2.263c.268.645 1.858.68 1.858.68S8.228 18.3 7.392 19.025c-.86.74-1.458 3.455-1.458 3.455s-.417-1.74-.951-2.105" fill="#fc0"/><path d="M15.384 13.229c-.36.227-.713.405-.979.456-.835.162-1.73-.798-1.73-.798s.21 1.404-.316 2.269c-.553.911-2.333 2.052-2.333 2.052s1.968-.38 2.35.23c.407.655.461 2.934.461 2.934s1.003-2.737 1.913-3.11a5.51 5.51 0 0 1 .634-.212z" fill="#e21d2c"/><path d="M8.586 14.266s1.005-1.575.945-2.136c-.06-.532-1.102-.723-1.102-.723s1.365-.336 1.96-.872c.574-.516 1.077-1.59 1.077-1.59s.126.889.637 1.015c.528.133 1.936-.435 1.936-.435s-1.112 1.052-1.548 1.625c-.456.598.184 1.737.184 1.737s-1.18-.41-1.84-.287c-.65.123-2.249 1.666-2.249 1.666" fill="#fff"/><path d="M20.582 13.073V9.172h2.505v.602H21.29v.963h1.599v.591h-1.6v1.143h1.932v.602zm5.551-.152a6.592 6.592 0 0 1-.513.104 4.16 4.16 0 0 1-.692.054 1.53 1.53 0 0 1-.594-.102.946.946 0 0 1-.383-.281 1.108 1.108 0 0 1-.206-.43 2.285 2.285 0 0 1-.062-.55v-1.65h.682v1.543c0 .316.046.541.138.676.091.135.252.203.481.203.083 0 .17-.004.262-.011.092-.008.16-.018.205-.029v-2.381h.682zm2.51-2.179a2.181 2.181 0 0 0-.233-.059 1.708 1.708 0 0 0-.586-.008 1.421 1.421 0 0 0-.177.04v2.358h-.681v-2.804c.131-.048.295-.094.492-.138a3.08 3.08 0 0 1 .656-.064 2.946 2.946 0 0 1 .512.065c.057.012.102.025.136.036zm2.523.783c0-.293-.063-.524-.19-.696a.617.617 0 0 0-.525-.255.62.62 0 0 0-.527.255c-.126.172-.188.403-.188.696 0 .297.062.531.188.704a.614.614 0 0 0 .527.259c.225 0 .4-.087.526-.26.126-.172.189-.406.189-.703m.698 0c0 .233-.034.445-.102.636a1.405 1.405 0 0 1-.287.49c-.123.135-.273.24-.447.315a1.446 1.446 0 0 1-.577.113c-.21 0-.402-.038-.575-.113a1.289 1.289 0 0 1-.444-.315 1.435 1.435 0 0 1-.29-.49 1.851 1.851 0 0 1-.104-.636c0-.233.034-.444.104-.633a1.4 1.4 0 0 1 .293-.487 1.27 1.27 0 0 1 .447-.313c.173-.073.362-.11.569-.11.206 0 .397.037.57.11.176.073.325.177.449.313.124.134.22.297.29.487.069.19.104.4.104.633m2.623.09c0-.304-.068-.54-.205-.71-.137-.168-.358-.253-.662-.253-.064 0-.13.003-.2.008-.07.006-.138.019-.205.037v1.683a1.051 1.051 0 0 0 .557.17c.248 0 .43-.085.543-.254.115-.169.172-.396.172-.681m.698-.012c0 .226-.029.432-.087.62a1.44 1.44 0 0 1-.25.484 1.13 1.13 0 0 1-.409.316 1.313 1.313 0 0 1-.554.112 1.427 1.427 0 0 1-.67-.163v1.142h-.681v-3.89c.138-.037.31-.073.512-.106.203-.034.416-.051.642-.051.233 0 .44.035.625.107.184.071.34.173.47.306.13.134.229.295.298.485.07.19.104.402.104.638m2.483-.36a.901.901 0 0 0-.04-.267.64.64 0 0 0-.115-.22.546.546 0 0 0-.447-.2.607.607 0 0 0-.476.215.704.704 0 0 0-.127.22c-.03.082-.05.166-.062.252zm-1.976.304c0-.258.038-.486.115-.68.077-.196.18-.358.307-.488.128-.13.274-.227.44-.293.164-.065.333-.098.506-.098.405 0 .722.126.949.377.227.252.34.627.34 1.126a3.176 3.176 0 0 1-.01.254h-1.943c.018.236.102.419.25.548.149.13.363.195.645.195a2.104 2.104 0 0 0 .777-.141l.09.557a.991.991 0 0 1-.155.06c-.065.02-.14.039-.225.056a3.2 3.2 0 0 1-.572.059c-.258 0-.484-.039-.675-.116a1.258 1.258 0 0 1-.473-.32 1.314 1.314 0 0 1-.276-.485 1.975 1.975 0 0 1-.09-.61m4.38.99c.21 0 .37-.011.478-.033v-.755a1.505 1.505 0 0 0-.627-.034.699.699 0 0 0-.209.062.383.383 0 0 0-.149.127.356.356 0 0 0-.056.206c0 .16.05.272.152.334a.784.784 0 0 0 .411.093m-.056-2.54c.225 0 .414.03.568.086a.91.91 0 0 1 .37.236.886.886 0 0 1 .196.369c.04.144.06.303.06.476v1.784c-.106.023-.264.05-.477.082a4.868 4.868 0 0 1-.717.048c-.177 0-.338-.017-.484-.051a1.011 1.011 0 0 1-.375-.163.768.768 0 0 1-.242-.293 1.017 1.017 0 0 1-.087-.445.86.86 0 0 1 .098-.428.811.811 0 0 1 .268-.284c.112-.073.243-.126.391-.157a2.197 2.197 0 0 1 .965.013v-.112a.882.882 0 0 0-.028-.225.468.468 0 0 0-.098-.189.47.47 0 0 0-.186-.126.806.806 0 0 0-.29-.046 2.61 2.61 0 0 0-.433.034 1.908 1.908 0 0 0-.321.079l-.085-.552c.087-.03.212-.06.378-.09a2.98 2.98 0 0 1 .529-.045m1.993.226c.131-.038.302-.074.512-.107.21-.034.443-.051.698-.051.24 0 .441.033.603.098a.94.94 0 0 1 .385.276c.096.118.163.261.203.428.04.167.06.35.06.549v1.655h-.682v-1.548c0-.158-.01-.292-.031-.403a.717.717 0 0 0-.101-.27.407.407 0 0 0-.192-.152.81.81 0 0 0-.295-.048 3.916 3.916 0 0 0-.479.045v2.376h-.681zm-21.427 8.049v-3.901h2.465v.602h-1.756v.996h1.56v.603h-1.56v1.7zm5.325-.152a6.61 6.61 0 0 1-.512.104c-.21.036-.441.053-.692.053-.237 0-.435-.033-.594-.1a.948.948 0 0 1-.383-.282 1.11 1.11 0 0 1-.206-.43 2.287 2.287 0 0 1-.062-.55v-1.65h.682v1.543c0 .315.046.54.138.676.091.135.252.202.48.202.083 0 .17-.004.263-.011.092-.008.16-.017.205-.028v-2.381h.681zm.833-2.697a4.565 4.565 0 0 1 1.211-.158c.24 0 .441.034.603.099.16.066.29.158.385.276.096.118.163.261.203.428.04.167.059.35.059.549v1.655h-.681v-1.549c0-.157-.01-.29-.031-.402a.707.707 0 0 0-.102-.27.402.402 0 0 0-.191-.152.805.805 0 0 0-.296-.048 2.33 2.33 0 0 0-.27.017c-.094.011-.163.02-.208.028v2.376h-.681zm3.795 1.3c0 .301.071.536.214.707.143.171.34.256.59.256a2.378 2.378 0 0 0 .469-.045v-1.688a1.038 1.038 0 0 0-.558-.17c-.248 0-.429.085-.543.254-.115.169-.172.398-.172.686m1.953 1.391c-.134.042-.304.08-.509.113-.204.034-.42.05-.644.05a1.72 1.72 0 0 1-.625-.106 1.3 1.3 0 0 1-.769-.791 1.85 1.85 0 0 1-.104-.64c0-.232.029-.443.087-.633.058-.19.144-.351.256-.487.113-.135.25-.239.411-.312.162-.073.348-.11.558-.11.142 0 .268.017.377.05.109.035.203.072.282.113v-.878l.68-.112zm1.572-.4c.18 0 .31-.021.393-.064.083-.043.124-.117.124-.223a.288.288 0 0 0-.132-.241 1.925 1.925 0 0 0-.436-.209 3.501 3.501 0 0 1-.341-.143 1.184 1.184 0 0 1-.268-.178.727.727 0 0 1-.177-.245.857.857 0 0 1-.064-.352c0-.27.099-.483.298-.638.199-.156.469-.234.81-.234.173 0 .338.016.496.048.158.031.276.063.355.093l-.124.551a1.712 1.712 0 0 0-.693-.135.702.702 0 0 0-.337.07.23.23 0 0 0-.13.217c0 .05.009.092.025.13a.278.278 0 0 0 .088.104.912.912 0 0 0 .163.095c.067.032.15.065.248.1.161.06.298.119.41.177a1.1 1.1 0 0 1 .28.197.674.674 0 0 1 .16.25 1 1 0 0 1 .05.338c0 .281-.104.495-.312.64-.208.143-.506.215-.892.215a2.452 2.452 0 0 1-.957-.168l.118-.569c.101.041.222.08.363.118.14.038.301.056.481.056m-12.875 5.45c.376 0 .565-.129.565-.386a.386.386 0 0 0-.05-.203.485.485 0 0 0-.136-.144.935.935 0 0 0-.195-.106c-.073-.03-.15-.06-.232-.09a2.376 2.376 0 0 1-.268-.11.937.937 0 0 1-.219-.144.607.607 0 0 1-.147-.199.65.65 0 0 1-.053-.279c0-.225.076-.401.23-.527.153-.126.365-.19.635-.19.156 0 .298.017.426.05a.97.97 0 0 1 .28.11l-.115.294a1 1 0 0 0-.232-.095 1.248 1.248 0 0 0-.359-.046.798.798 0 0 0-.193.022.498.498 0 0 0-.156.067.333.333 0 0 0-.106.113.325.325 0 0 0-.04.162c0 .069.015.127.042.174a.408.408 0 0 0 .115.125.99.99 0 0 0 .173.098c.065.03.138.06.217.09a4.4 4.4 0 0 1 .307.133.986.986 0 0 1 .241.16.645.645 0 0 1 .158.221.777.777 0 0 1 .056.31.608.608 0 0 1-.247.52c-.165.122-.397.182-.697.182a1.813 1.813 0 0 1-.682-.128 1.455 1.455 0 0 1-.113-.053l.108-.298c.057.033.143.068.26.108.116.04.259.06.427.06m1.338-1.565c.079-.02.183-.04.314-.063.13-.022.28-.034.45-.034a.88.88 0 0 1 .313.05.553.553 0 0 1 .212.147.886.886 0 0 1 .22-.117c.054-.02.114-.039.181-.055a.898.898 0 0 1 .215-.025c.149 0 .27.022.365.065a.523.523 0 0 1 .22.185c.054.079.09.173.108.281.019.11.028.229.028.358v1.084h-.345v-1.01c0-.114-.006-.211-.017-.294a.568.568 0 0 0-.063-.204.288.288 0 0 0-.126-.12.466.466 0 0 0-.207-.04.766.766 0 0 0-.288.047.567.567 0 0 0-.154.083c.02.065.035.135.045.212.01.077.015.158.015.242v1.084h-.346v-1.01c0-.114-.006-.211-.018-.294a.592.592 0 0 0-.065-.204.288.288 0 0 0-.127-.12.457.457 0 0 0-.202-.04 1.713 1.713 0 0 0-.225.013 1.604 1.604 0 0 0-.158.024v1.631h-.345zm3.834 1.59c.081 0 .154-.002.217-.005a.977.977 0 0 0 .158-.02v-.577a.445.445 0 0 0-.12-.03 1.305 1.305 0 0 0-.369-.003.508.508 0 0 0-.16.046.344.344 0 0 0-.12.097.254.254 0 0 0-.049.162c0 .123.04.21.12.258a.621.621 0 0 0 .323.072m-.03-1.731c.139 0 .256.018.351.054a.564.564 0 0 1 .23.152.58.58 0 0 1 .125.234c.025.09.037.19.037.299v1.208l-.124.02a7.573 7.573 0 0 1-.397.045 3.07 3.07 0 0 1-.233.01c-.11 0-.21-.012-.301-.034a.677.677 0 0 1-.238-.106.486.486 0 0 1-.156-.191.67.67 0 0 1-.056-.287.519.519 0 0 1 .241-.46.82.82 0 0 1 .261-.104 1.432 1.432 0 0 1 .42-.028c.037.004.072.008.106.015l.087.017.052.01v-.096a.78.78 0 0 0-.019-.17.384.384 0 0 0-.066-.148.337.337 0 0 0-.132-.104.514.514 0 0 0-.218-.039c-.114 0-.213.008-.299.024a1.071 1.071 0 0 0-.191.05l-.041-.285c.045-.02.119-.04.223-.058.104-.019.217-.028.338-.028m2.01.044a1.1 1.1 0 0 1 .216.02l.102.02a.687.687 0 0 1 .069.016l-.06.301a1.175 1.175 0 0 0-.695-.007v1.623h-.345v-1.85c.081-.03.183-.057.304-.083a1.9 1.9 0 0 1 .41-.04m1.025-.003h.731v.29h-.731v.891c0 .097.007.177.022.24a.36.36 0 0 0 .067.149.26.26 0 0 0 .111.076.723.723 0 0 0 .407-.013l.132-.05.067.286a1.246 1.246 0 0 1-.182.065 1.037 1.037 0 0 1-.298.039.9.9 0 0 1-.325-.05.48.48 0 0 1-.206-.151.602.602 0 0 1-.11-.247 1.634 1.634 0 0 1-.031-.34v-1.724l.346-.059zm3.585.658h.36v1.203a1.56 1.56 0 0 1-.129.034 4.044 4.044 0 0 1-.432.068 2.621 2.621 0 0 1-.264.013c-.18 0-.345-.03-.494-.089a1.046 1.046 0 0 1-.383-.26 1.176 1.176 0 0 1-.247-.42 1.723 1.723 0 0 1-.087-.572c0-.215.033-.407.099-.574.065-.167.153-.308.265-.421.112-.115.242-.201.392-.26.15-.06.31-.09.481-.09a1.935 1.935 0 0 1 .543.074 1.193 1.193 0 0 1 .241.105l-.115.3a.97.97 0 0 0-.286-.117 1.45 1.45 0 0 0-.365-.046.884.884 0 0 0-.358.07.742.742 0 0 0-.275.205.962.962 0 0 0-.176.325c-.042.128-.063.27-.063.429 0 .154.018.293.053.42a.89.89 0 0 0 .164.325c.073.09.163.16.271.21a.9.9 0 0 0 .381.074c.104 0 .192-.005.266-.016.073-.011.125-.022.158-.032zm1.597-.655a1.104 1.104 0 0 1 .216.02l.102.02a.676.676 0 0 1 .069.016l-.06.301a1.173 1.173 0 0 0-.695-.007v1.623h-.345v-1.85a2.28 2.28 0 0 1 .304-.083 1.9 1.9 0 0 1 .41-.04m2.046.963c0-.218-.049-.39-.146-.519a.477.477 0 0 0-.4-.191.477.477 0 0 0-.4.191c-.097.128-.146.301-.146.519 0 .218.049.39.147.518a.476.476 0 0 0 .4.192.476.476 0 0 0 .399-.192c.097-.128.146-.3.146-.518m.36 0c0 .153-.022.292-.066.416a.954.954 0 0 1-.188.32.83.83 0 0 1-.288.206.904.904 0 0 1-.364.072.905.905 0 0 1-.364-.072.831.831 0 0 1-.288-.206.954.954 0 0 1-.187-.32 1.224 1.224 0 0 1-.068-.416c0-.151.023-.29.068-.415a.948.948 0 0 1 .187-.32.833.833 0 0 1 .288-.207.905.905 0 0 1 .364-.073.91.91 0 0 1 .364.073.83.83 0 0 1 .288.207.95.95 0 0 1 .188.32c.044.126.067.264.067.415m1.998 1.01a15.809 15.809 0 0 1-.22-.61 9.535 9.535 0 0 1-.214-.716 12.702 12.702 0 0 1-.432 1.326h-.3a9.674 9.674 0 0 1-.334-.873c-.11-.326-.212-.68-.309-1.058h.372a15.654 15.654 0 0 0 .199.787 8.64 8.64 0 0 0 .24.725 9.18 9.18 0 0 0 .124-.37 14.092 14.092 0 0 0 .222-.784c.034-.128.063-.247.088-.358h.286c.022.11.05.23.082.358a17.056 17.056 0 0 0 .22.784c.042.13.083.253.125.37.038-.095.076-.205.117-.331a12.354 12.354 0 0 0 .322-1.181h.356c-.096.379-.199.732-.308 1.058-.11.327-.22.618-.335.873zm1.613-1.976h.732v.29h-.732v.891c0 .097.008.177.022.24a.364.364 0 0 0 .067.149c.03.035.067.06.112.076a.726.726 0 0 0 .407-.013 3.85 3.85 0 0 0 .132-.05l.066.286a1.25 1.25 0 0 1-.182.065 1.036 1.036 0 0 1-.297.039.897.897 0 0 1-.325-.05.48.48 0 0 1-.206-.151.598.598 0 0 1-.11-.247 1.611 1.611 0 0 1-.031-.34v-1.724l.345-.059zm1.152 1.976v-2.823l.345-.06v.989a1.194 1.194 0 0 1 .424-.079c.153 0 .28.023.383.066a.597.597 0 0 1 .243.182c.06.078.103.171.128.28.025.109.037.23.037.36v1.085h-.345v-1.01c0-.119-.008-.22-.024-.305a.514.514 0 0 0-.08-.204.319.319 0 0 0-.149-.114.663.663 0 0 0-.23-.035.886.886 0 0 0-.115.008 2.24 2.24 0 0 0-.21.037.566.566 0 0 0-.062.018v1.605z"/></g><g fill-rule="nonzero"><path d="M88.712 8.52H65.238v8.127h23.474z" fill="#fff"/><path d="M88.712 16.345H65.238v7.826h23.474z" fill="#bb0a30"/><path d="M88.638 24.097H65.312V8.595h23.326zm.074-15.577H65.238v15.651h23.474z" fill="#7b7979"/><path d="M94.447 11.676c-.2.014-.388.04-.565.078v3.934h.726V14.18h.461c.038 0 .084-.002.138-.006a8.502 8.502 0 0 1 .492.689c.087.132.172.269.257.409.084.14.163.279.236.417h.812a6.214 6.214 0 0 0-.236-.458 9.58 9.58 0 0 0-.559-.866 6.674 6.674 0 0 0-.247-.323c.533-.192.8-.56.8-1.1 0-.435-.152-.757-.458-.968-.305-.211-.746-.316-1.322-.316-.157 0-.336.006-.535.02m.979.639a.91.91 0 0 1 .308.106c.086.05.153.118.199.202a.64.64 0 0 1 .069.31.658.658 0 0 1-.07.323.499.499 0 0 1-.204.202.972.972 0 0 1-.337.104 3.37 3.37 0 0 1-.466.028h-.317v-1.29c.13-.011.272-.017.426-.017.142 0 .273.01.392.032m2.033 2.506c.062.19.156.355.282.495.127.14.289.25.484.328.196.079.427.118.692.118.103 0 .205-.005.305-.017s.193-.026.28-.043a2.27 2.27 0 0 0 .23-.058c.067-.021.12-.041.158-.06l-.092-.571a2.188 2.188 0 0 1-.795.144c-.288 0-.508-.066-.66-.198-.151-.133-.237-.32-.256-.562h1.988a2.617 2.617 0 0 0 .01-.26c0-.51-.115-.894-.348-1.151-.232-.257-.556-.386-.97-.386-.177 0-.35.033-.518.1-.17.068-.32.168-.45.3-.13.133-.236.299-.314.498-.079.2-.118.432-.118.697 0 .227.03.435.092.626m.634-.937a1.18 1.18 0 0 1 .063-.259.735.735 0 0 1 .13-.225.62.62 0 0 1 .487-.219.564.564 0 0 1 .458.204.653.653 0 0 1 .117.226.91.91 0 0 1 .04.273zm4.553 1.008c-.117.173-.302.26-.556.26a1.084 1.084 0 0 1-.57-.173v-1.723c.07-.019.14-.031.21-.037a2.49 2.49 0 0 1 .205-.009c.311 0 .537.087.677.26.14.173.21.414.21.725 0 .292-.058.524-.176.697m.784-1.362a1.327 1.327 0 0 0-.786-.81 1.76 1.76 0 0 0-.64-.109c-.23 0-.449.017-.657.052a5.4 5.4 0 0 0-.523.11v3.98h.696v-1.17a1.475 1.475 0 0 0 1.253.052c.167-.076.306-.184.418-.322a1.48 1.48 0 0 0 .256-.495c.06-.193.09-.404.09-.634 0-.242-.036-.46-.107-.654m3.298-.855h-.697v2.437a1.81 1.81 0 0 1-.21.028 3.316 3.316 0 0 1-.269.012c-.234 0-.398-.07-.492-.208-.094-.138-.141-.369-.141-.691v-1.578h-.697v1.688c0 .203.02.39.063.561.043.171.113.318.21.44a.974.974 0 0 0 .392.289c.163.07.366.104.608.104.257 0 .493-.019.708-.055.215-.037.39-.073.525-.107zm2.666 2.22c-.146.175-.347.262-.604.262-.112 0-.206-.005-.285-.014a1.936 1.936 0 0 1-.193-.031v-1.735a.991.991 0 0 1 .245-.115.998.998 0 0 1 .325-.052c.253 0 .439.087.556.26.117.173.176.407.176.702 0 .308-.073.548-.22.723m.844-1.353a1.473 1.473 0 0 0-.256-.499 1.111 1.111 0 0 0-.417-.32 1.372 1.372 0 0 0-.568-.112 1.35 1.35 0 0 0-.388.052 1.603 1.603 0 0 0-.297.116v-1.562l-.698.116v4.262a4.207 4.207 0 0 0 1.181.167c.238 0 .452-.036.64-.109a1.323 1.323 0 0 0 .786-.815c.071-.194.107-.412.107-.654 0-.234-.03-.448-.09-.642m1.956 1.627a1.123 1.123 0 0 1-.228-.05.322.322 0 0 1-.14-.091.336.336 0 0 1-.073-.147.944.944 0 0 1-.02-.213v-3.451l-.697.116V14.8c0 .15.016.283.05.4a.634.634 0 0 0 .169.294.79.79 0 0 0 .326.181c.136.043.308.066.516.07zm1.267-2.494h-.696v3.012h.696zm-.052-1.198a.43.43 0 0 0-.3-.116.438.438 0 0 0-.304.116.407.407 0 0 0-.127.316.4.4 0 0 0 .127.311.438.438 0 0 0 .305.116.43.43 0 0 0 .3-.116.398.398 0 0 0 .126-.31.406.406 0 0 0-.127-.317m.864 3.338a1.267 1.267 0 0 0 .752.83c.19.078.414.117.671.117.166 0 .326-.015.481-.046.156-.03.272-.065.349-.104l-.098-.575a1.8 1.8 0 0 1-.651.12c-.319 0-.545-.087-.68-.262-.134-.175-.201-.412-.201-.711 0-.311.07-.552.213-.723.142-.171.35-.256.622-.256a1.523 1.523 0 0 1 .599.121l.15-.57a2.116 2.116 0 0 0-.807-.156c-.23 0-.437.04-.622.12a1.36 1.36 0 0 0-.47.335c-.128.142-.227.31-.296.504a2.084 2.084 0 0 0-.012 1.256m-17.632 4.419a1.49 1.49 0 0 0-.297-.498 1.29 1.29 0 0 0-.457-.32 1.495 1.495 0 0 0-.585-.112 1.47 1.47 0 0 0-.582.113c-.177.074-.33.18-.458.319a1.468 1.468 0 0 0-.3.498 1.87 1.87 0 0 0-.106.648c0 .239.035.455.106.65.072.197.17.364.297.502.127.139.278.246.455.323.177.077.373.115.588.115.215 0 .412-.038.59-.115.179-.077.331-.184.458-.323a1.43 1.43 0 0 0 .294-.501c.069-.196.103-.412.103-.65 0-.239-.035-.455-.106-.649m-.8 1.368a.628.628 0 0 1-.54.265.627.627 0 0 1-.538-.265c-.129-.176-.193-.417-.193-.72 0-.3.065-.537.193-.71a.629.629 0 0 1 .539-.263c.23 0 .41.087.538.262.129.174.193.412.193.711 0 .303-.064.544-.193.72m1.933-3.35c-.204.221-.305.526-.305.914v3.225h.697v-2.43h1.094v-.582h-1.094v-.201c0-.097.01-.186.028-.269a.523.523 0 0 1 .098-.21.468.468 0 0 1 .185-.135.723.723 0 0 1 .282-.049c.1 0 .193.01.28.029.086.019.161.044.227.075l.132-.576a2.37 2.37 0 0 0-.276-.078 1.873 1.873 0 0 0-.427-.044c-.41 0-.718.11-.921.332m3.937.127c-.205.013-.393.04-.561.077v3.934h.725v-1.405h.363c.292 0 .552-.025.778-.075.226-.05.418-.127.576-.233.158-.106.277-.242.36-.41.083-.166.124-.367.124-.6 0-.45-.155-.78-.464-.992-.31-.21-.753-.317-1.334-.317-.172 0-.362.007-.567.02m1.008.64a.973.973 0 0 1 .314.107c.088.05.158.119.207.207.05.088.075.198.075.328 0 .273-.094.458-.282.556-.188.098-.457.147-.806.147h-.352v-1.36c.12-.011.271-.016.456-.016.138 0 .267.01.388.03m4.499 1.216a1.487 1.487 0 0 0-.297-.498 1.282 1.282 0 0 0-.458-.32 1.488 1.488 0 0 0-.584-.112 1.46 1.46 0 0 0-.582.113 1.32 1.32 0 0 0-.458.319 1.458 1.458 0 0 0-.3.498c-.07.194-.106.41-.106.648 0 .239.035.455.106.65.071.197.17.364.297.502.127.139.279.246.455.323.177.077.373.115.588.115.215 0 .412-.038.59-.115.179-.077.331-.184.458-.323a1.43 1.43 0 0 0 .294-.501c.07-.196.104-.412.104-.65 0-.239-.036-.455-.107-.649m-.8 1.368a.63.63 0 0 1-.54.265.628.628 0 0 1-.538-.265c-.128-.176-.193-.417-.193-.72 0-.3.065-.537.193-.71a.63.63 0 0 1 .539-.263c.23 0 .41.087.539.262.128.174.192.412.192.711 0 .303-.064.544-.192.72m2.773.271a1.116 1.116 0 0 1-.228-.049.325.325 0 0 1-.14-.092.334.334 0 0 1-.072-.147.923.923 0 0 1-.021-.213v-3.45l-.697.115v3.467c0 .15.016.284.05.4a.64.64 0 0 0 .17.295c.08.079.188.14.325.181.136.042.308.065.515.069zm1.204-.066c-.104-.064-.156-.178-.156-.343a.36.36 0 0 1 .058-.21.385.385 0 0 1 .152-.13.722.722 0 0 1 .214-.063 1.548 1.548 0 0 1 .475 0c.073.011.128.023.167.034v.772a2.652 2.652 0 0 1-.49.035.802.802 0 0 1-.42-.095m-.179-2.457a2.771 2.771 0 0 0-.386.092l.087.565c.084-.03.193-.058.328-.08a2.65 2.65 0 0 1 .444-.035.81.81 0 0 1 .296.046.46.46 0 0 1 .291.322c.02.073.03.15.03.23v.116a2.356 2.356 0 0 0-.514-.063c-.164 0-.324.016-.475.049a1.173 1.173 0 0 0-.4.16.823.823 0 0 0-.274.292.877.877 0 0 0-.1.437c0 .18.029.333.088.455.06.123.142.223.248.3.106.077.234.132.384.167.15.034.314.052.495.052.272 0 .517-.017.734-.05.217-.032.38-.06.487-.082v-1.827c0-.176-.02-.338-.06-.487a.906.906 0 0 0-.202-.376.931.931 0 0 0-.378-.243 1.707 1.707 0 0 0-.581-.086c-.192 0-.373.016-.542.046m2.616 3.041h.697v-2.43c.046-.008.117-.017.213-.029a2.22 2.22 0 0 1 .276-.017c.12 0 .22.016.303.048a.415.415 0 0 1 .195.156.727.727 0 0 1 .104.276c.021.114.032.251.032.413v1.583h.697V19.7c0-.203-.02-.39-.061-.562a1.073 1.073 0 0 0-.207-.437.959.959 0 0 0-.395-.282 1.638 1.638 0 0 0-.616-.102 4.667 4.667 0 0 0-1.238.162zm4.092-2.217c.117-.173.302-.26.556-.26a1.072 1.072 0 0 1 .57.173v1.728a2.36 2.36 0 0 1-.478.046c-.257 0-.46-.087-.605-.262-.146-.174-.219-.415-.219-.723 0-.295.059-.53.176-.702m1.823-2.253l-.697.116v1.446a1.683 1.683 0 0 0-.287-.115 1.307 1.307 0 0 0-.386-.053c-.216 0-.406.038-.571.113a1.168 1.168 0 0 0-.42.32 1.41 1.41 0 0 0-.262.498c-.06.194-.09.41-.09.648 0 .242.035.46.107.654a1.327 1.327 0 0 0 .786.81c.188.072.401.108.64.108a4.105 4.105 0 0 0 1.18-.167z"/></g><path d="M160.871 23.878c-5.874.142-5.607-3.608-5.432-4.457.585-2.847.819-3.867-3.61-5.172 1.739-.265 2.694-1.038 2.694-2.135 0-1.484-1.433-2.244-4.246-2.244h-3.342v7.077h1.705v-2.191c10.114 1.052 4.797 7.118 12.231 9.122zm-8.122-11.595c0 .916-1.006 1.507-2.762 1.507h-1.347v-2.967h1.296c1.91 0 2.813.434 2.813 1.46" fill="#a7a5a6"/><path d="M139.515 13.999c0-.922.906-1.553 2.651-1.793-1.505-.24-2.292-.811-2.292-1.612 0-1.132 1.454-1.833 4.208-1.833h3.336v7.27h-3.353c-2.96 0-4.55-.76-4.55-2.032zm2.138-3.305c0 .741.958 1.181 2.771 1.181h1.283V9.562h-1.437c-1.71 0-2.617.4-2.617 1.132zm-.342 3.225c0 .83 1.043 1.281 3.062 1.281h1.334v-2.543h-1.54c-1.898 0-2.856.44-2.856 1.262" fill="#4f4c4c"/><path d="M159.833 10.004v2.392h.18v-.982c0-.157.035-.28.104-.368a.335.335 0 0 1 .278-.133c.19 0 .286.119.286.356v1.127h.18V11.26c0-.165-.04-.292-.119-.381a.416.416 0 0 0-.327-.133.46.46 0 0 0-.402.23v-.972zm12.695 0v2.392h.18v-2.392zm-5.02.132v.27h.216v-.27zm7.284 0a.835.835 0 0 0-.673.305c-.17.203-.255.478-.255.825 0 .355.088.64.266.851a.825.825 0 0 0 .665.308c.146 0 .275-.022.389-.067l.01-.2a.803.803 0 0 1-.37.09.656.656 0 0 1-.546-.26c-.141-.176-.212-.422-.212-.736 0-.297.065-.528.194-.693a.643.643 0 0 1 .535-.247.73.73 0 0 1 .385.103l-.006-.215a1.265 1.265 0 0 0-.382-.064zm-16.484.032v.176h.52v2.052h.186v-2.052h.52v-.176zm5.164 0v2.228h.186v-1.9l.918 1.9h.241v-2.228h-.186v1.936l-.934-1.936zm3.442.228l-.18.051v.328h-.237v.16h.237v.954c0 .195.017.325.049.392.042.088.132.131.27.131a.55.55 0 0 0 .189-.035v-.164a.441.441 0 0 1-.138.026c-.086 0-.142-.031-.167-.093a.609.609 0 0 1-.023-.202v-1.009h.328v-.16h-.328zm11.66 0l-.18.051v.328h-.237v.16h.238v.954c0 .195.016.325.048.392.043.088.133.131.27.131a.56.56 0 0 0 .19-.035v-.164a.441.441 0 0 1-.139.026c-.085 0-.141-.031-.167-.093a.608.608 0 0 1-.022-.202v-1.009h.327v-.16h-.327zm-16.791.35a.477.477 0 0 0-.408.218c-.105.152-.158.359-.158.62 0 .274.054.483.16.626a.542.542 0 0 0 .46.215.785.785 0 0 0 .389-.093v-.19a.647.647 0 0 1-.363.113.389.389 0 0 1-.333-.159c-.078-.106-.117-.26-.117-.46h.89a3.85 3.85 0 0 0 .003-.158c0-.233-.047-.414-.14-.541a.45.45 0 0 0-.383-.191zm3.954 0a.671.671 0 0 0-.428.147l.035.19a.504.504 0 0 1 .378-.17c.236 0 .354.13.354.391v.12l-.154-.007c-.492 0-.739.177-.739.53 0 .15.043.267.129.351a.49.49 0 0 0 .36.127.45.45 0 0 0 .404-.218l.026.19h.17a2.483 2.483 0 0 1-.016-.3v-.722c0-.22-.037-.379-.11-.475-.079-.103-.215-.154-.409-.154zm2.94 0a.516.516 0 0 0-.443.216c-.105.145-.157.353-.157.625s.052.48.156.623a.516.516 0 0 0 .444.215.52.52 0 0 0 .447-.215c.105-.143.157-.351.157-.623 0-.27-.053-.477-.159-.623a.519.519 0 0 0-.445-.218zm1.564 0a.442.442 0 0 0-.417.263l-.01-.234h-.167c.009.164.013.308.013.43v1.191h.18v-.982c0-.157.035-.28.104-.368a.335.335 0 0 1 .278-.133c.19 0 .286.119.286.356v1.127h.18V11.26c0-.165-.04-.292-.12-.381a.416.416 0 0 0-.327-.133zm1.319 0a.671.671 0 0 0-.429.147l.036.19a.504.504 0 0 1 .377-.17c.236 0 .354.13.354.391v.12l-.154-.007c-.492 0-.738.177-.738.53 0 .15.042.267.128.351a.49.49 0 0 0 .36.127.45.45 0 0 0 .404-.218l.026.19h.17a2.483 2.483 0 0 1-.016-.3v-.722c0-.22-.036-.379-.11-.475-.079-.103-.215-.154-.408-.154zm4.44 0a.477.477 0 0 0-.409.218c-.105.152-.157.359-.157.62 0 .274.053.483.16.626.108.143.26.215.46.215a.784.784 0 0 0 .388-.093v-.19a.646.646 0 0 1-.362.113.389.389 0 0 1-.333-.159c-.078-.106-.117-.26-.117-.46h.89a3.85 3.85 0 0 0 .003-.158c0-.233-.047-.414-.14-.541a.45.45 0 0 0-.384-.191zm1.47 0a.442.442 0 0 0-.417.263l-.01-.234h-.167c.008.164.013.308.013.43v1.191h.18v-.982c0-.157.034-.28.104-.368a.335.335 0 0 1 .278-.133c.19 0 .286.119.286.356v1.127h.18V11.26c0-.165-.04-.292-.12-.381a.416.416 0 0 0-.327-.133zm2.322 0c-.206.006-.35.108-.434.305 0-.099-.003-.19-.01-.276h-.166c.008.164.012.308.012.43v1.191h.18v-.982c0-.15.035-.267.103-.35a.321.321 0 0 1 .26-.116h.055zm.706 0a.477.477 0 0 0-.407.218c-.105.152-.158.359-.158.62 0 .274.054.483.16.626.108.143.26.215.46.215a.784.784 0 0 0 .389-.093v-.19a.647.647 0 0 1-.363.113.389.389 0 0 1-.333-.159c-.078-.106-.117-.26-.117-.46h.89c.002-.052.003-.105.003-.158 0-.233-.047-.414-.14-.541a.45.45 0 0 0-.384-.191zm-12.974.029v1.621h.18v-1.621zm-5.738.14c.222 0 .334.187.334.56h-.704c.024-.373.147-.56.37-.56zm6.891 0c.274 0 .411.225.411.672 0 .445-.137.668-.41.668-.273 0-.409-.223-.409-.668 0-.447.136-.671.408-.671zm7.325 0c.223 0 .334.187.334.56h-.703c.024-.373.147-.56.37-.56zm4.5 0c.222 0 .334.187.334.56h-.704c.024-.373.147-.56.37-.56zm-14.603.65l.177.01v.13c0 .371-.133.556-.4.556a.297.297 0 0 1-.224-.085.325.325 0 0 1-.082-.236c0-.25.176-.375.529-.375zm5.822 0l.177.01v.13c0 .371-.133.556-.4.556a.297.297 0 0 1-.224-.085.325.325 0 0 1-.082-.236c0-.25.176-.375.529-.375zm-12.813 2.26c-.14 0-.24.037-.297.111-.056.074-.085.194-.085.361v.331h-.257v.16h.257v1.462h.18v-1.461h.276v-.16h-.276v-.348c0-.104.014-.178.042-.221.028-.043.081-.064.16-.064a.53.53 0 0 1 .135.016v-.17a.53.53 0 0 0-.135-.017zm12.178.033v2.392h.18v-.983c0-.156.034-.279.104-.367a.335.335 0 0 1 .278-.134c.19 0 .286.12.286.357v1.127h.18v-1.137c0-.165-.04-.291-.12-.38a.416.416 0 0 0-.327-.134.46.46 0 0 0-.401.232v-.973zm5.983 0v.98c-.09-.16-.216-.239-.376-.239-.38 0-.569.28-.569.842 0 .559.19.838.569.838.16 0 .292-.088.395-.263.004.139.007.217.01.234h.15v-2.392zm7.206 0v2.392h.18v-2.392zm-21.902.163v2.229h.187v-1.04h.18c.12 0 .2.018.244.054.042.037.086.118.131.244l.264.742h.208l-.292-.808a.714.714 0 0 0-.112-.225.278.278 0 0 0-.193-.083c.308-.052.462-.232.462-.54 0-.212-.064-.363-.192-.45-.118-.082-.306-.123-.565-.123zm16.15 0v2.229h.299c.342 0 .605-.098.787-.294.182-.196.273-.479.273-.85 0-.723-.354-1.085-1.06-1.085zm-15.963.177h.14c.196 0 .333.025.412.074.092.056.138.161.138.316 0 .168-.044.284-.133.348-.089.065-.235.097-.439.097h-.118zm16.15 0h.14c.283 0 .492.073.627.22.135.147.202.376.202.687 0 .646-.282.968-.847.968h-.122zm14.444.051l-.18.052v.327h-.237v.16h.237v.955c0 .195.016.325.049.391.042.088.132.132.27.132a.58.58 0 0 0 .189-.035v-.164a.44.44 0 0 1-.138.026c-.086 0-.142-.031-.167-.093a.608.608 0 0 1-.023-.203V14.79h.328v-.16h-.328zm-33.404.35a.516.516 0 0 0-.443.217c-.105.145-.158.353-.158.625s.052.48.156.623a.516.516 0 0 0 .445.215.52.52 0 0 0 .446-.215c.105-.144.157-.351.157-.623 0-.27-.052-.478-.158-.623a.519.519 0 0 0-.445-.219zm1.58 0c-.206.007-.35.109-.434.306 0-.099-.003-.191-.01-.277h-.166c.008.165.012.309.012.43v1.192h.18v-.983c0-.15.034-.266.103-.35a.321.321 0 0 1 .26-.115h.055zm3.002 0a.477.477 0 0 0-.408.219c-.104.152-.157.358-.157.62 0 .274.054.482.16.626.108.143.26.215.46.215a.784.784 0 0 0 .388-.093v-.19a.647.647 0 0 1-.362.113.389.389 0 0 1-.333-.16c-.078-.105-.117-.259-.117-.46h.89c.002-.051.003-.104.003-.157 0-.234-.047-.414-.14-.542a.45.45 0 0 0-.384-.19zm1.273 0a.492.492 0 0 0-.352.124.428.428 0 0 0-.13.326c0 .099.026.18.08.244a.683.683 0 0 0 .235.17c.147.073.236.123.268.151a.26.26 0 0 1 .094.212.277.277 0 0 1-.082.21.311.311 0 0 1-.225.08.612.612 0 0 1-.361-.123l-.029.196a.96.96 0 0 0 .379.093c.16 0 .287-.045.38-.135a.469.469 0 0 0 .14-.353.373.373 0 0 0-.09-.26.903.903 0 0 0-.27-.18 1.24 1.24 0 0 1-.237-.141.236.236 0 0 1-.08-.187c0-.17.096-.256.29-.256.092 0 .18.021.26.064l.027-.186a1.016 1.016 0 0 0-.297-.049zm1.21 0a.477.477 0 0 0-.408.219c-.105.152-.158.358-.158.62 0 .274.054.482.161.626a.54.54 0 0 0 .46.215.784.784 0 0 0 .388-.093v-.19a.647.647 0 0 1-.363.113.389.389 0 0 1-.332-.16c-.079-.105-.118-.259-.118-.46h.89c.002-.051.003-.104.003-.157 0-.234-.046-.414-.14-.542a.45.45 0 0 0-.383-.19zm1.302 0a.672.672 0 0 0-.428.148l.035.19a.504.504 0 0 1 .377-.17c.236 0 .355.13.355.391v.119l-.154-.006c-.493 0-.74.176-.74.53 0 .15.044.267.13.351a.49.49 0 0 0 .359.127.45.45 0 0 0 .405-.218l.025.189h.17a2.481 2.481 0 0 1-.015-.299v-.722c0-.22-.037-.38-.11-.475-.08-.103-.216-.155-.409-.155zm1.575 0a.458.458 0 0 0-.433.306c0-.099-.004-.191-.01-.277h-.167a9.2 9.2 0 0 1 .013.43v1.192h.18v-.983a.54.54 0 0 1 .102-.35.321.321 0 0 1 .26-.115h.055zm.819 0a.602.602 0 0 0-.49.22c-.12.147-.181.351-.181.612 0 .274.058.484.173.63.116.145.283.218.501.218.1 0 .2-.02.299-.058v-.19a.596.596 0 0 1-.296.078c-.323 0-.485-.235-.485-.704 0-.205.041-.363.123-.473a.399.399 0 0 1 .34-.166c.115 0 .216.026.302.077v-.192a.832.832 0 0 0-.286-.052zm3.245 0a.671.671 0 0 0-.428.148l.035.19a.504.504 0 0 1 .377-.17c.237 0 .355.13.355.391v.119l-.154-.006c-.493 0-.739.176-.739.53 0 .15.043.267.128.351a.49.49 0 0 0 .36.127.45.45 0 0 0 .405-.218l.025.189h.17a2.48 2.48 0 0 1-.015-.299v-.722c0-.22-.037-.38-.11-.475-.08-.103-.216-.155-.409-.155zm1.56 0a.442.442 0 0 0-.418.264l-.01-.235h-.167a8 8 0 0 1 .013.43v1.192h.18v-.983c0-.156.034-.279.104-.367a.335.335 0 0 1 .278-.134c.19 0 .286.12.286.357v1.127h.18v-1.137c0-.165-.04-.291-.12-.38a.417.417 0 0 0-.327-.134zm5.42 0a.477.477 0 0 0-.408.219c-.105.152-.157.358-.157.62 0 .274.053.482.16.626a.54.54 0 0 0 .46.215.784.784 0 0 0 .388-.093v-.19a.647.647 0 0 1-.363.113.389.389 0 0 1-.332-.16c-.078-.105-.117-.259-.117-.46h.89l.002-.157c0-.234-.046-.414-.14-.542a.45.45 0 0 0-.383-.19zm2.659 0a.477.477 0 0 0-.408.219c-.105.152-.157.358-.157.62 0 .274.053.482.16.626a.54.54 0 0 0 .46.215.785.785 0 0 0 .388-.093v-.19a.647.647 0 0 1-.363.113.389.389 0 0 1-.332-.16c-.078-.105-.117-.259-.117-.46h.89l.002-.157c0-.234-.046-.414-.14-.542a.45.45 0 0 0-.383-.19zm2.033 0a.516.516 0 0 0-.444.217c-.104.145-.157.353-.157.625s.052.48.156.623a.516.516 0 0 0 .445.215.52.52 0 0 0 .446-.215c.105-.144.157-.351.157-.623 0-.27-.053-.478-.159-.623a.519.519 0 0 0-.444-.219zm1.538 0c-.16 0-.292.088-.395.264a5.744 5.744 0 0 0-.013-.235h-.164c.011.25.016.392.016.424v1.898h.18v-.909c.09.159.215.238.376.238.379 0 .568-.28.568-.838 0-.561-.19-.842-.568-.842zm1.496 0c-.169 0-.297.088-.385.264a41.15 41.15 0 0 1-.01-.235h-.167a8 8 0 0 1 .013.43v1.192h.18v-.983c0-.156.032-.279.096-.367a.296.296 0 0 1 .25-.134c.17 0 .255.12.255.357v1.127h.18v-.983c0-.156.032-.279.096-.367a.296.296 0 0 1 .25-.134c.172 0 .257.12.257.357v1.127h.18v-1.137c0-.165-.036-.291-.11-.38a.369.369 0 0 0-.301-.134c-.17 0-.306.085-.411.254a.354.354 0 0 0-.14-.185.403.403 0 0 0-.233-.069zm2.117 0a.477.477 0 0 0-.408.219c-.105.152-.158.358-.158.62 0 .274.054.482.161.626a.54.54 0 0 0 .46.215.784.784 0 0 0 .388-.093v-.19a.646.646 0 0 1-.363.113.389.389 0 0 1-.332-.16c-.079-.105-.118-.259-.118-.46h.89c.002-.051.003-.104.003-.157 0-.234-.046-.414-.14-.542a.45.45 0 0 0-.383-.19zm1.47 0a.442.442 0 0 0-.417.264l-.01-.235h-.167a8 8 0 0 1 .013.43v1.192h.18v-.983c0-.156.035-.279.104-.367a.335.335 0 0 1 .278-.134c.19 0 .286.12.286.357v1.127h.18v-1.137c0-.165-.04-.291-.119-.38a.416.416 0 0 0-.327-.134zm-10.587.03l.462 1.621h.215l.482-1.622h-.19l-.398 1.41-.37-1.41zm-4.772.134c.117 0 .21.05.277.148.068.098.102.24.102.424v.209c0 .184-.034.326-.102.425-.067.1-.16.15-.277.15-.249 0-.373-.226-.373-.678 0-.452.124-.678.373-.678zm10.28 0c.245 0 .368.226.368.678 0 .452-.123.677-.369.677a.318.318 0 0 1-.28-.147c-.066-.099-.099-.241-.099-.427v-.21c0-.183.034-.325.101-.423a.32.32 0 0 1 .278-.148zm-27.22.007c.274 0 .41.223.41.67 0 .446-.136.669-.41.669-.272 0-.408-.223-.408-.668 0-.448.136-.671.408-.671zm4.586 0c.222 0 .334.186.334.558h-.704c.024-.372.147-.558.37-.558zm2.482 0c.223 0 .334.186.334.558h-.703c.023-.372.146-.558.369-.558zm13.921 0c.223 0 .334.186.334.558h-.703c.023-.372.146-.558.37-.558zm2.66 0c.222 0 .333.186.333.558h-.703c.023-.372.147-.558.37-.558zm2.029 0c.274 0 .41.223.41.67 0 .446-.136.669-.41.669-.272 0-.408-.223-.408-.668 0-.448.136-.671.408-.671zm5.154 0c.222 0 .334.186.334.558h-.703c.023-.372.146-.558.369-.558zm-22.304.648l.178.01v.132c0 .37-.134.555-.4.555a.297.297 0 0 1-.225-.085.326.326 0 0 1-.082-.236c0-.25.176-.376.53-.376zm5.64 0l.177.01v.132c0 .37-.134.555-.4.555a.298.298 0 0 1-.225-.085.326.326 0 0 1-.082-.236c0-.25.177-.376.53-.376z" fill="#b72531" fill-rule="nonzero"/></svg>